<svg width="13" height="16" viewBox="0 0 13 16" fill="none" xmlns="http://www.w3.org/2000/svg">
<path d="M12.4374 4.21712H12.2672L11.8352 2.99911C11.7941 2.88323 11.7013 2.79303 11.5843 2.7553L11.0276 2.57552C10.8197 2.50838 10.5972 2.62239 10.5302 2.83C10.4632 3.03767 10.5772 3.26034 10.7847 3.32732L11.1557 3.44716L11.4288 4.2171H11.3115C11.2338 4.2171 11.1633 4.26264 11.1314 4.33356L10.8111 5.04475C10.7981 5.07359 10.7922 5.10517 10.794 5.13674L10.9145 7.30948C10.9203 7.41414 11.0068 7.49605 11.1117 7.49605H11.2348V12.2062C11.2348 12.7318 10.9364 13.1887 10.5002 13.4172V10.4792C10.5002 10.19 10.3958 9.92476 10.2231 9.71875V1.61938C10.2231 0.807658 9.56278 0.147263 8.75106 0.147263H1.94653C1.13481 0.147263 0.474459 0.807658 0.474459 1.61938V9.71862C0.301663 9.92461 0.197304 10.1899 0.197304 10.4791V14.2927C0.197304 14.9462 0.728993 15.4779 1.38255 15.4779H9.31498C9.90564 15.4779 10.3966 15.0436 10.4857 14.4776C11.4852 14.2057 12.2225 13.2907 12.2225 12.2062V7.4961H12.4374C12.5464 7.4961 12.6349 7.40768 12.6349 7.29858V4.41469C12.6349 4.3056 12.5465 4.21712 12.4374 4.21712ZM5.34877 10.9188C4.42352 10.9188 3.67344 10.1687 3.67344 9.24345C3.67344 8.31822 5.34877 6.54793 5.34877 6.54793C5.34877 6.54793 7.02405 8.31825 7.02405 9.24345C7.02405 10.1687 6.27395 10.9188 5.34877 10.9188ZM8.64296 4.37436H2.05467V1.72747H8.64296V4.37436Z" fill="#747A88"/>
</svg>
