<svg width="13" height="16" viewBox="0 0 13 16" fill="none" xmlns="http://www.w3.org/2000/svg">
<path d="M0.722343 0.535833C0.956099 0.285295 1.27843 0.147263 1.63005 0.147263H2.59641C3.30858 0.147263 3.98828 0.717898 4.11138 1.41936L4.17232 1.76625C4.23358 2.11532 4.15114 2.44595 3.9401 2.69725C3.72906 2.94856 3.41771 3.08691 3.06328 3.08691H1.81499C1.64179 3.08691 1.47428 3.05232 1.31863 2.99093L1.45131 4.12435C1.579 4.07069 1.7192 4.0421 1.86655 4.0421H3.29078C3.90092 4.0421 4.50021 4.52767 4.62681 5.12447L5.88602 11.061L11.8272 10.6341C12.1482 10.6111 12.4162 10.7199 12.5824 10.9336C12.738 11.1337 12.7835 11.4022 12.7106 11.6896L12.0199 14.4093C11.8702 14.9985 11.2538 15.4779 10.6459 15.4779H5.66522H5.58921H3.0539C2.43789 15.4779 1.88378 14.9795 1.81882 14.3668L0.844231 5.17865C0.838679 5.12613 0.83804 5.07437 0.839828 5.02313L0.506265 2.17391C0.459169 2.05119 0.429241 1.92075 0.41986 1.78546L0.397779 1.4683C0.373274 1.11757 0.488588 0.786436 0.722343 0.535833Z" fill="#747A88"/>
</svg>
