<svg width="16" height="16" viewBox="0 0 16 16" fill="none" xmlns="http://www.w3.org/2000/svg">
<path d="M8.01367 0.147263C3.79301 0.147263 0.348343 3.59214 0.348343 7.81259C0.348343 12.0333 3.79322 15.4779 8.01367 15.4779C12.2344 15.4779 15.679 12.033 15.679 7.81259C15.679 3.59193 12.2341 0.147263 8.01367 0.147263ZM8.01367 1.97377C10.9278 1.97377 13.35 4.1197 13.7834 6.91431H12.2258C11.2382 6.91431 10.2999 6.51802 9.65153 5.82706C8.76523 4.88249 7.2622 4.88219 6.3758 5.82703C5.72739 6.51802 4.78911 6.91431 3.80151 6.91431H2.24395C2.67731 4.1197 5.09956 1.97377 8.01367 1.97377ZM8.01367 9.60915C7.27073 9.60915 6.66625 9.00472 6.66625 8.26173C6.66625 7.51873 7.27073 6.91431 8.01367 6.91431C8.75666 6.91431 9.36109 7.51873 9.36109 8.26173C9.36109 9.00472 8.75666 9.60915 8.01367 9.60915ZM2.57668 9.94142C3.09079 9.73973 3.46202 9.60915 3.97141 9.60915C5.60891 9.60915 6.8824 11.0684 6.63574 12.7079H6.63469C6.59804 12.9589 6.52594 13.202 6.42194 13.4309C4.66254 12.9317 3.23874 11.6265 2.57668 9.94142ZM9.60575 13.4308C9.49891 13.1959 9.42837 12.9527 9.39265 12.7079H9.3916C9.10418 10.7974 10.8678 9.22103 12.6959 9.68562C12.8886 9.73461 13.1298 9.81557 13.4506 9.94145C12.7886 11.6264 11.365 12.9316 9.60575 13.4308Z" fill="#747A88"/>
</svg>
